<svg xmlns="http://www.w3.org/2000/svg" width="12.922" height="12.92" viewBox="0 0 12.922 12.92">
    <defs>
        <style>
            .cls-1{fill:#656565}
        </style>
    </defs>
    <path id="Path_302" d="M16.424 4.963a1.455 1.455 0 0 0-.459 2.837v3.163h-3.733V7.8a1.46 1.46 0 1 0-.918 0v3.163H6.879V7.8a1.459 1.459 0 1 0-.918 0v7.245a1.46 1.46 0 1 0 .918 0v-3.163h4.435v3.158a1.457 1.457 0 0 0-1.02 1.384 1.461 1.461 0 0 0 1.46 1.458 1.455 1.455 0 0 0 .477-2.832v-3.17h4.192a.459.459 0 0 0 .459-.459V7.8a1.455 1.455 0 0 0-.459-2.837zm-9.463 11.46a.541.541 0 1 1-.542-.541.543.543 0 0 1 .542.541zm-.541-9.46a.541.541 0 1 1 .542-.542.541.541 0 0 1-.542.542zm5.877 9.46a.543.543 0 0 1-.542.542.544.544 0 0 1-.542-.542.542.542 0 0 1 1.084 0zm4.128-9.46a.541.541 0 1 1 .541-.542.541.541 0 0 1-.542.542z" class="cls-1" data-name="Path 302" transform="translate(-4.961 -4.963)"/>
</svg>
