<svg xmlns="http://www.w3.org/2000/svg" width="10.645" height="13" viewBox="0 0 10.645 13">
    <defs>
        <style>
            .cls-1{fill:#656565}
        </style>
    </defs>
    <g id="Group_304" data-name="Group 304" transform="translate(-5.656 -4.465)">
        <path id="Path_303" d="M15.226 7.938v-.189a3.288 3.288 0 0 0-3.284-3.284h-3a3.288 3.288 0 0 0-3.286 3.284v9.716h9.57v-.526a2.732 2.732 0 0 0 1.075-2.02V10.7c-.001-1.859-.692-2.532-1.075-2.762zm-.694 8.862l-8.232.018V7.749a2.64 2.64 0 0 1 2.64-2.637h3a2.64 2.64 0 0 1 2.637 2.637zm.694-.763V8.824a3.3 3.3 0 0 1 .428 1.874v4.2a2.073 2.073 0 0 1-.428 1.138z" class="cls-1" data-name="Path 303"/>
        <path id="Path_304" d="M10.942 14.121a6 6 0 0 0-.9 1.847.966.966 0 0 0 1.931 0 5.99 5.99 0 0 0-.9-1.847.082.082 0 0 0-.131 0z" class="cls-1" data-name="Path 304" transform="translate(-.602 -1.322)"/>
        <path id="Path_305" d="M13.023 12.867a3.98 3.98 0 0 0-.6 1.226.641.641 0 1 0 1.283 0 3.97 3.97 0 0 0-.6-1.226.053.053 0 0 0-.083 0z" class="cls-1" data-name="Path 305" transform="translate(-.93 -1.151)"/>
        <path id="Path_306" d="M8.935 13.7a2.92 2.92 0 0 0-.44.9.471.471 0 1 0 .942 0A2.92 2.92 0 0 0 9 13.7a.039.039 0 0 0-.065 0z" class="cls-1" data-name="Path 306" transform="translate(-.39 -1.266)"/>
        <path id="Path_307" d="M11.686 6.259H9.657a2.327 2.327 0 0 0-2.324 2.325v1.957h6.677V8.584a2.327 2.327 0 0 0-2.324-2.325zm1.677 3.635H7.98v-1.31a1.68 1.68 0 0 1 1.677-1.678h2.029a1.68 1.68 0 0 1 1.677 1.678z" class="cls-1" data-name="Path 307" transform="translate(-.23 -.246)"/>
    </g>
</svg>
