<svg xmlns="http://www.w3.org/2000/svg" width="8.372" height="13.144" viewBox="0 0 8.372 13.144">
    <defs>
        <style>
            .cls-1{fill:#656565}
        </style>
    </defs>
    <path id="Path_301" d="M11.078 14.847a.334.334 0 0 1-.334.334H8.938a.334.334 0 1 1 0-.668h1.806a.334.334 0 0 1 .334.334zm2.948-3.192v.963a1.3 1.3 0 0 1-1.3 1.3H6.952a1.3 1.3 0 0 1-1.3-1.3v-.963a.334.334 0 0 1 .334-.334h.089v-.929a.432.432 0 0 1 0-.059.339.339 0 0 1 .053-.135.328.328 0 0 1 .1-.1.338.338 0 0 1 .053-.027q.2-.082.394-.17V5.823a1.578 1.578 0 0 1 1.034-1.472v-.88A1.435 1.435 0 0 1 9.14 2.038h1.4a1.434 1.434 0 0 1 1.432 1.433v.884a1.577 1.577 0 0 1 .62.422l.018-.033a.334.334 0 1 1 .591.312 11.025 11.025 0 0 1-2.7 3.265 14.89 14.89 0 0 1-3.149 2.017v.987h4.977V7.3a.334.334 0 0 1 .671 0v4.022h.695a.334.334 0 0 1 .332.333zM8.376 4.3a.754.754 0 0 0 .026.2c0 .009.005.016.007.025a.766.766 0 0 0 .731.542h1.4a.765.765 0 0 0 .731-.542c0-.009 0-.017.007-.025a.782.782 0 0 0 .026-.2v-.829a.765.765 0 0 0-.764-.765h-1.4a.765.765 0 0 0-.764.765V4.3zM7.352 9.587A12.523 12.523 0 0 0 12.223 5.4a.909.909 0 0 0-.433-.4 1.434 1.434 0 0 1-1.249.731H9.14A1.434 1.434 0 0 1 7.891 5a.905.905 0 0 0-.539.825v3.762zm6.006 2.4H6.323v.629a.629.629 0 0 0 .629.629h5.778a.629.629 0 0 0 .629-.629z" class="cls-1" data-name="Path 301" transform="translate(-5.655 -2.038)"/>
</svg>
